<svg width="10" height="21" viewBox="0 0 10 21" fill="none" xmlns="http://www.w3.org/2000/svg">
<path d="M7.38857 0.380291C7.90342 -0.12998 8.73444 -0.126273 9.24471 0.388572C9.75498 0.903417 9.75127 1.73444 9.23643 2.24471L6.15123 5.3025C4.89912 6.54349 4.04022 7.39756 3.45904 8.12123C2.89449 8.8242 2.70082 9.27573 2.64927 9.68012C2.61691 9.93404 2.61691 10.191 2.64927 10.4449C2.70082 10.8493 2.89449 11.3008 3.45904 12.0038C4.04021 12.7274 4.89912 13.5815 6.15123 14.8225L9.23643 17.8803C9.75127 18.3906 9.75498 19.2216 9.24471 19.7364C8.73444 20.2513 7.90342 20.255 7.38857 19.7447L4.24779 16.6318C3.06484 15.4594 2.09801 14.5012 1.41235 13.6474C0.699348 12.7596 0.183216 11.8585 0.0453407 10.7768C-0.015113 10.3025 -0.015113 9.82251 0.0453407 9.34822C0.183216 8.26652 0.699348 7.36537 1.41235 6.47755C2.09801 5.62378 3.06484 4.66557 4.2478 3.49316L7.38857 0.380291Z" fill="#226BD7"/>
</svg>
