<svg width="10" height="21" viewBox="0 0 10 21" fill="none" xmlns="http://www.w3.org/2000/svg">
<path d="M2.23643 0.380291C1.72158 -0.12998 0.890562 -0.126273 0.380291 0.388572C-0.12998 0.903417 -0.126273 1.73444 0.388572 2.24471L3.47377 5.3025C4.72588 6.54349 5.58478 7.39756 6.16596 8.12123C6.73051 8.8242 6.92418 9.27573 6.97573 9.68012C7.00809 9.93404 7.00809 10.191 6.97573 10.4449C6.92418 10.8493 6.73051 11.3008 6.16596 12.0038C5.58479 12.7274 4.72588 13.5815 3.47377 14.8225L0.388572 17.8803C-0.126273 18.3906 -0.12998 19.2216 0.380291 19.7364C0.890562 20.2513 1.72158 20.255 2.23643 19.7447L5.37721 16.6318C6.56016 15.4594 7.52699 14.5012 8.21265 13.6474C8.92565 12.7596 9.44178 11.8585 9.57966 10.7768C9.64011 10.3025 9.64011 9.82251 9.57966 9.34822C9.44178 8.26652 8.92565 7.36537 8.21265 6.47755C7.52699 5.62378 6.56016 4.66557 5.3772 3.49316L2.23643 0.380291Z" fill="#226BD7"/>
</svg>
