<svg width="52" height="54" viewBox="0 0 52 54" fill="none" xmlns="http://www.w3.org/2000/svg">
<path d="M15.9807 53.3301C13.4508 54.4154 11.7229 53.1129 10.1783 51.5087C7.76552 49.0029 6.30329 45.8892 4.96134 42.7422C2.40414 36.7454 0.730876 30.4859 0.212277 23.9917C-0.082847 20.296 -0.226239 16.5428 0.860881 12.889C1.7734 9.82208 3.27063 7.28727 6.69069 6.61858C8.56546 6.25201 10.4518 6.34125 12.1891 7.3124C13.0122 7.7725 13.8855 8.16952 14.6346 8.73049C18.1551 11.3665 21.8469 11.5055 25.717 9.62058C25.9827 9.49118 26.2311 9.2182 26.7361 9.56943C25.2878 11.6818 23.4263 13.2513 21.1103 14.3053C18.7743 15.3685 16.2948 15.55 13.762 15.524C16.1757 16.7311 18.686 17.1012 21.327 16.4401C25.3478 15.4336 27.9043 12.631 30.0275 9.3147C30.813 8.08791 31.253 6.58121 33.1345 6.49093C35.2599 6.38895 37.1893 6.70338 38.8072 8.22937C40.3031 9.6402 41.0269 11.4486 41.5261 13.36C42.5351 17.2227 42.3965 21.143 41.9752 25.0659C41.2822 31.5193 39.5574 37.7026 36.9775 43.644C35.707 46.57 34.2098 49.3761 31.9443 51.6947C28.9126 54.7975 25.9846 54.4262 23.8603 50.6653C23.0027 49.1471 22.52 47.4898 21.9931 45.8449C21.7807 45.1821 21.7084 44.4569 21.1845 43.8082C20.5719 44.2676 20.5754 44.9697 20.4175 45.57C19.9051 47.5173 19.2428 49.4006 18.1744 51.1193C17.6304 51.9944 16.9911 52.7865 15.9807 53.3301Z" fill="#FEFEFE"/>
<path d="M43.5547 2.19695C44.2622 1.79904 44.8852 1.43583 45.682 0.971191C45.4917 2.28396 44.9555 3.32253 45.2138 4.48014C45.4558 5.56498 46.2024 6.38723 46.7989 7.69692C44.3003 6.53446 42.2305 6.83774 40.2342 8.57736C41.1315 6.18476 40.94 4.04014 39.1985 2.10324C40.7255 2.36604 42.0834 2.8354 43.5547 2.19695Z" fill="#FEFEFE"/>
<path d="M44.6738 11.9354C44.3698 11.4353 44.1034 11.014 43.8369 10.5927C43.8313 10.4848 43.8256 10.3769 43.8199 10.269C45.6659 11.1258 47.3206 10.8274 48.94 9.63867C48.1504 11.5355 48.7047 13.0882 49.9387 14.5744C48.8327 14.9206 47.9767 14.0042 47.0706 14.4259C46.2765 14.7955 45.4964 15.1953 44.466 15.7017C44.7641 14.3264 45.5062 13.1807 44.6738 11.9354Z" fill="#FEFEFE"/>
<path d="M26.6181 1.98881C27.6883 2.53959 28.47 1.78433 29.5834 1.42822C29.1213 2.71275 29.4318 3.75198 30.3031 5.03855C28.8228 4.57033 27.7567 4.7298 26.5734 5.57634C26.8538 4.22113 26.8703 3.23842 26.2399 2.34797C26.0982 2.14783 26.3217 2.01191 26.6181 1.98881Z" fill="#FEFEFE"/>
<path d="M35.071 2.07813C35.0792 1.48346 34.5308 1.1274 34.6736 0.483919C35.5224 0.642416 36.348 0.585531 37.1909 0C37.2264 0.976433 37.0414 1.8462 37.7897 2.72855C36.6939 2.59876 35.874 2.66738 35.2197 3.16767C34.8261 2.76451 35.1167 2.45585 35.071 2.07813Z" fill="#FEFEFE"/>
</svg>
