<svg width="26" height="29" viewBox="0 0 26 29" fill="none" xmlns="http://www.w3.org/2000/svg">
<path d="M9.5512 28.0372C8.03917 28.6858 7.00641 27.9073 6.08326 26.9486C4.64123 25.4509 3.7673 23.5899 2.96525 21.7091C1.43689 18.125 0.436824 14.3838 0.126872 10.5024C-0.0495153 8.29364 -0.135216 6.05043 0.514524 3.86667C1.05991 2.03366 1.95476 0.518683 3.99884 0.119021C5.11933 -0.100062 6.24674 -0.0467291 7.28507 0.533698C7.777 0.808689 8.29894 1.04598 8.74671 1.38125C10.8508 2.95674 13.0573 3.03979 15.3703 1.91324C15.5291 1.8359 15.6776 1.67274 15.9794 1.88266C15.1138 3.14518 14.0012 4.08321 12.617 4.71318C11.2209 5.34859 9.73891 5.45706 8.22517 5.44152C9.66778 6.16298 11.1681 6.38418 12.7466 5.98906C15.1496 5.38752 16.6776 3.7125 17.9466 1.73042C18.416 0.997204 18.679 0.0966914 19.8035 0.0427329C21.0738 -0.0182202 22.227 0.169706 23.194 1.08175C24.088 1.92496 24.5206 3.00581 24.819 4.14815C25.422 6.45683 25.3392 8.79986 25.0874 11.1444C24.6732 15.0015 23.6423 18.697 22.1004 22.248C21.341 23.9968 20.4462 25.674 19.0922 27.0597C17.2802 28.9142 15.5303 28.6923 14.2606 26.4445C13.7481 25.5371 13.4596 24.5466 13.1446 23.5635C13.0177 23.1674 12.9745 22.7339 12.6614 22.3462C12.2952 22.6208 12.2974 23.0404 12.2029 23.3992C11.8967 24.563 11.5009 25.6886 10.8623 26.7158C10.5372 27.2388 10.1551 27.7122 9.5512 28.0372Z" fill="#226BD7"/>
</svg>
