<svg width="36" height="36" viewBox="0 0 36 36" fill="none" xmlns="http://www.w3.org/2000/svg">
<path fill-rule="evenodd" clip-rule="evenodd" d="M20.6711 12.9298C19.6256 12.2863 18.7719 11.7609 18.068 11.4149C17.3607 11.0672 16.6242 10.8049 15.8491 10.8918C14.7287 11.0173 13.7341 11.6411 13.0981 12.5742C12.6665 13.2074 12.5154 13.976 12.4451 14.7933C12.375 15.6081 12.375 16.6525 12.375 17.9461V18.0539C12.375 19.3475 12.375 20.3919 12.4451 21.2067C12.5154 22.024 12.6665 22.7926 13.0981 23.4258C13.7341 24.3589 14.7287 24.9827 15.8491 25.1082C16.6242 25.1951 17.3607 24.9328 18.068 24.5851C18.7719 24.2391 19.6256 23.7137 20.6711 23.0702L20.7701 23.0093C21.8167 22.3652 22.6701 21.84 23.3023 21.3639C23.9441 20.8805 24.5005 20.3467 24.7992 19.6316C25.2336 18.5916 25.2336 17.4084 24.7992 16.3684C24.5005 15.6533 23.9441 15.1195 23.3023 14.6361C22.6701 14.16 21.8167 13.6348 20.7702 12.9908L20.6711 12.9298ZM16.0996 13.1278C16.2173 13.1146 16.4713 13.1372 17.0754 13.4341C17.6716 13.7272 18.4341 14.195 19.5419 14.8768C20.6493 15.5583 21.4113 16.0287 21.9487 16.4334C22.4863 16.8383 22.6565 17.0764 22.723 17.2356C22.9257 17.7207 22.9257 18.2793 22.723 18.7644C22.6565 18.9236 22.4863 19.1617 21.9487 19.5666C21.4113 19.9713 20.6493 20.4417 19.5419 21.1232C18.4341 21.805 17.6716 22.2728 17.0754 22.5659C16.4713 22.8628 16.2173 22.8854 16.0996 22.8722C15.6623 22.8232 15.242 22.5762 14.9573 22.1586C14.8612 22.0176 14.7484 21.7294 14.6868 21.0138C14.626 20.3071 14.625 19.3601 14.625 18C14.625 16.6399 14.626 15.6929 14.6868 14.9862C14.7484 14.2706 14.8612 13.9824 14.9573 13.8414C15.242 13.4238 15.6623 13.1768 16.0996 13.1278Z" fill="#226BD7"/>
<path fill-rule="evenodd" clip-rule="evenodd" d="M18 1.875C9.09441 1.875 1.875 9.09441 1.875 18C1.875 26.9056 9.09441 34.125 18 34.125C26.9056 34.125 34.125 26.9056 34.125 18C34.125 9.09441 26.9056 1.875 18 1.875ZM4.125 18C4.125 10.337 10.337 4.125 18 4.125C25.663 4.125 31.875 10.337 31.875 18C31.875 25.663 25.663 31.875 18 31.875C10.337 31.875 4.125 25.663 4.125 18Z" fill="#226BD7"/>
</svg>
