<svg width="31" height="33" viewBox="0 0 31 33" fill="none" xmlns="http://www.w3.org/2000/svg">
<path d="M9.5512 31.874C8.03917 32.5227 7.00641 31.7442 6.08326 30.7854C4.64123 29.2878 3.7673 27.4268 2.96525 25.546C1.43689 21.9618 0.436824 18.2207 0.126872 14.3393C-0.0495153 12.1305 -0.135216 9.88729 0.514524 7.70353C1.05991 5.87053 1.95476 4.35554 3.99884 3.95588C5.11933 3.7368 6.24674 3.79013 7.28507 4.37056C7.777 4.64555 8.29894 4.88284 8.74671 5.21811C10.8508 6.7936 13.0573 6.87665 15.3703 5.7501C15.5291 5.67276 15.6776 5.50961 15.9794 5.71952C15.1138 6.98204 14.0012 7.92007 12.617 8.55004C11.2209 9.18545 9.73891 9.29392 8.22517 9.27838C9.66778 9.99984 11.1681 10.221 12.7466 9.82592C15.1496 9.22438 16.6776 7.54936 17.9466 5.56728C18.416 4.83406 18.679 3.93355 19.8035 3.87959C21.0738 3.81864 22.227 4.00657 23.194 4.91861C24.088 5.76182 24.5206 6.84267 24.819 7.98501C25.422 10.2937 25.3392 12.6367 25.0874 14.9813C24.6732 18.8384 23.6423 22.5339 22.1004 26.0849C21.341 27.8337 20.4462 29.5109 19.0922 30.8966C17.2802 32.7511 15.5303 32.5291 14.2606 30.2813C13.7481 29.374 13.4596 28.3834 13.1446 27.4004C13.0177 27.0042 12.9745 26.5708 12.6614 26.183C12.2952 26.4576 12.2974 26.8772 12.2029 27.236C11.8967 28.3999 11.5009 29.5255 10.8623 30.5527C10.5372 31.0757 10.1551 31.5491 9.5512 31.874Z" fill="#226BD7"/>
<path d="M26.0314 1.31307C26.4543 1.07525 26.8266 0.858169 27.3029 0.580467C27.1891 1.36507 26.8687 1.9858 27.023 2.67767C27.1677 3.32605 27.6139 3.81748 27.9704 4.60025C26.477 3.90547 25.24 4.08674 24.0469 5.12646C24.5832 3.69647 24.4687 2.41469 23.4279 1.25706C24.3405 1.41413 25.1521 1.69465 26.0314 1.31307Z" fill="#BAD1F3"/>
<path d="M26.7003 7.13338C26.5186 6.83449 26.3593 6.58269 26.2001 6.3309C26.1967 6.26641 26.1933 6.20193 26.1899 6.13744C27.2932 6.64952 28.2822 6.47116 29.2501 5.76072C28.7781 6.89437 29.1094 7.82238 29.847 8.71063C29.1859 8.91756 28.6743 8.36988 28.1328 8.62192C27.6581 8.84283 27.1919 9.08175 26.5761 9.38439C26.7542 8.56241 27.1978 7.87769 26.7003 7.13338Z" fill="#BAD1F3"/>
<path d="M15.9089 1.18854C16.5485 1.51772 17.0157 1.06632 17.6812 0.853489C17.405 1.62122 17.5906 2.24233 18.1113 3.01128C17.2266 2.73144 16.5894 2.82675 15.8822 3.3327C16.0498 2.52273 16.0596 1.93539 15.6828 1.4032C15.5981 1.28358 15.7317 1.20234 15.9089 1.18854Z" fill="#BAD1F3"/>
<path d="M20.961 1.24205C20.9658 0.886631 20.6381 0.673822 20.7234 0.289233C21.2307 0.383961 21.7242 0.349963 22.2279 7.62939e-06C22.2492 0.583594 22.1386 1.10343 22.5858 1.63078C21.9309 1.55322 21.4409 1.59423 21.0498 1.89323C20.8145 1.65228 20.9882 1.4678 20.961 1.24205Z" fill="#BAD1F3"/>
</svg>
